<?xml version="1.0" encoding="utf-8"?>
<!-- Generator: Adobe Illustrator 24.0.1, SVG Export Plug-In . SVG Version: 6.00 Build 0)  -->
<svg version="1.1" id="Laag_1" xmlns="http://www.w3.org/2000/svg" xmlns:xlink="http://www.w3.org/1999/xlink" x="0px" y="0px"
	 viewBox="0 0 46 46" style="enable-background:new 0 0 46 46;" xml:space="preserve">
<style type="text/css">
	.st0{fill:#FFFFFF;}
</style>
<g>
	<g>
		<g>
			<path class="st0" d="M45.1,1.6l-0.7-0.7l-6.2,6.2C34.2,3.3,28.8,1,22.9,1C10.7,1,0.8,10.9,0.8,23C0.8,29,3.2,34.3,7,38.3
				l-6.2,6.2l0.7,0.7L7.7,39c4,3.8,9.3,6.1,15.2,6.1C35.1,45.1,45,35.2,45,23c0-5.9-2.3-11.3-6.1-15.2L45.1,1.6z M1.8,23
				C1.8,11.4,11.3,2,22.9,2c5.6,0,10.8,2.2,14.5,5.8L26,19.3v-8.4c0-1.4,0.1-2.3,0.2-2.7c0-0.2,0.4-0.3,1-0.4
				c0.6-0.1,1.1-0.2,1.5-0.2c0.1-0.1,0.1-0.3,0.1-0.5c0-0.3,0-0.4-0.1-0.5c-2.5,0.1-3.9,0.2-4.2,0.2c-0.4,0-1.8-0.1-4.3-0.2
				c-0.1,0.1-0.1,0.3-0.1,0.5c0,0.3,0,0.4,0.1,0.5c0.4,0,0.8,0,1.5,0.2c0.6,0.1,1,0.2,1,0.4c0.1,0.4,0.2,1.3,0.2,2.7v11.5L7.7,37.6
				C4.1,33.8,1.8,28.7,1.8,23z M44,23c0,11.6-9.4,21.1-21.1,21.1c-5.6,0-10.8-2.2-14.5-5.8l14.5-14.5v2.4c0,2.1-0.1,3.9-0.2,5.3
				c-0.1,1.5-0.3,2.5-0.6,3.3c-0.3,0.8-0.5,1.3-0.9,1.6c-0.3,0.3-0.7,0.5-1.1,0.5c-0.5,0-1.1-0.3-1.6-0.8c0,0-0.1-0.1-0.2-0.2
				c-0.1-0.1-0.2-0.2-0.2-0.2c-0.1,0-0.1-0.1-0.2-0.2c-0.1-0.1-0.2-0.1-0.3-0.2c-0.1,0-0.1-0.1-0.2-0.1c-0.1-0.1-0.2-0.1-0.3-0.1
				c-0.1,0-0.2,0-0.3,0c-0.5,0-1,0.2-1.3,0.6C15.2,36,15,36.5,15,37.1c0,0.4,0.1,0.6,0.3,0.8c0.2,0.2,0.6,0.3,1.1,0.4
				c0.5,0.1,0.9,0.2,1.2,0.2c1.2,0,2.4-0.2,3.4-0.7c1-0.5,1.9-1.2,2.6-2.2c0.8-1,1.4-2.3,1.8-3.9c0.4-1.6,0.6-3.5,0.6-5.7v-5.4
				L38.2,8.5C41.8,12.3,44,17.4,44,23z"/>
		</g>
	</g>
</g>
</svg>
